<svg width="32" height="32" viewBox="0 0 32 32" fill="none" xmlns="http://www.w3.org/2000/svg">
<path fill-rule="evenodd" clip-rule="evenodd" d="M7.52876 7.52851C7.78911 7.26816 8.21122 7.26816 8.47157 7.52851L16.0002 15.0571L23.5288 7.52851C23.7891 7.26816 24.2112 7.26816 24.4716 7.52851C24.7319 7.78886 24.7319 8.21097 24.4716 8.47132L16.943 15.9999L24.4716 23.5285C24.7319 23.7889 24.7319 24.211 24.4716 24.4713C24.2112 24.7317 23.7891 24.7317 23.5288 24.4713L16.0002 16.9427L8.47157 24.4713C8.21122 24.7317 7.78911 24.7317 7.52876 24.4713C7.26841 24.211 7.26841 23.7889 7.52876 23.5285L15.0574 15.9999L7.52876 8.47132C7.26841 8.21097 7.26841 7.78886 7.52876 7.52851Z" fill="#141416"/>
</svg>
