<svg width="24" height="24" viewBox="0 0 24 24" fill="none" xmlns="http://www.w3.org/2000/svg">
<path fill-rule="evenodd" clip-rule="evenodd" d="M12.0018 5.5C12.8465 5.497 13.6874 5.61339 14.4995 5.84572C14.765 5.92166 15.0418 5.76801 15.1177 5.50251C15.1937 5.23702 15.04 4.96023 14.7745 4.88428C13.8721 4.62613 12.9377 4.49676 11.9991 4.5C7.75951 4.50035 4.28691 6.99038 1.56588 11.7519C1.47803 11.9057 1.47804 12.0944 1.56592 12.2481C2.3591 13.6357 3.21465 14.8307 4.13582 15.8274C4.32325 16.0302 4.63959 16.0426 4.84238 15.8552C5.04517 15.6677 5.05762 15.3514 4.87018 15.1486C4.06322 14.2755 3.29876 13.227 2.57785 12C5.16372 7.5972 8.30868 5.5 12 5.5L12.0018 5.5ZM16.9542 6.37832C16.7992 6.60685 16.8588 6.91778 17.0873 7.07279C18.6678 8.14485 20.1163 9.77752 21.4221 12C18.8363 16.4028 15.6913 18.5 12 18.5C10.1593 18.5 8.47239 17.9797 6.92257 16.9345C6.69363 16.7801 6.38287 16.8405 6.22847 17.0694C6.07406 17.2984 6.13448 17.6091 6.36342 17.7635C8.07561 18.9183 9.95669 19.5 12 19.5C16.24 19.5 19.7129 17.01 22.4341 12.2481C22.522 12.0943 22.522 11.9056 22.4341 11.7519C21.0391 9.31139 19.4479 7.46564 17.6487 6.24521C17.4201 6.0902 17.1092 6.14979 16.9542 6.37832ZM13.7694 10.2333C13.3003 9.76457 12.6643 9.50136 12.0011 9.50159C11.338 9.50183 10.7021 9.76549 10.2333 10.2346C9.76457 10.7037 9.50136 11.3397 9.50159 12.0029C9.50183 12.666 9.76549 13.3019 10.2346 13.7707C10.7037 14.2394 11.3397 14.5026 12.0029 14.5024C12.666 14.5022 13.3019 14.2385 13.7707 13.7694C14.2394 13.3003 14.5026 12.6643 14.5024 12.0011C14.5022 11.338 14.2385 10.7021 13.7694 10.2333ZM12.0015 10.5016C12.3994 10.5015 12.7811 10.6594 13.0626 10.9407C13.3441 11.222 13.5023 11.6035 13.5024 12.0015C13.5025 12.3994 13.3446 12.7811 13.0633 13.0626C12.782 13.3441 12.4005 13.5023 12.0025 13.5024C11.6046 13.5025 11.2229 13.3446 10.9414 13.0633C10.6599 12.782 10.5017 12.4005 10.5016 12.0025C10.5015 11.6046 10.6594 11.2229 10.9407 10.9414C11.222 10.6599 11.6035 10.5017 12.0015 10.5016Z" fill="#89898B"/>
</svg>