<svg width="24" height="24" viewBox="0 0 24 24" fill="none" xmlns="http://www.w3.org/2000/svg">
<path fill-rule="evenodd" clip-rule="evenodd" d="M21.3536 2.64645C21.1583 2.45118 20.8417 2.45118 20.6464 2.64645L6.34712 16.9458C6.30722 16.9751 6.2711 17.0107 6.24038 17.0525L2.64645 20.6464C2.45119 20.8417 2.45119 21.1583 2.64645 21.3536C2.84171 21.5488 3.15829 21.5488 3.35355 21.3536L6.71561 17.9915C8.33259 18.9948 10.0959 19.5 12 19.5C16.24 19.5 19.7129 17.01 22.4341 12.2481C22.522 12.0943 22.522 11.9056 22.4341 11.7519C21.1628 9.52782 19.7286 7.7977 18.1225 6.58464L21.3536 3.35355C21.5488 3.15829 21.5488 2.84171 21.3536 2.64645ZM17.4079 7.29924C18.8641 8.36959 20.2051 9.92863 21.4221 12C18.8363 16.4028 15.6913 18.5 12 18.5C10.3637 18.5 8.84888 18.0888 7.44389 17.2632L17.4079 7.29924ZM12.0018 5.5C12.8465 5.497 13.6874 5.6134 14.4995 5.84572C14.765 5.92167 15.0418 5.76801 15.1177 5.50252C15.1937 5.23702 15.04 4.96023 14.7745 4.88428C13.8721 4.62613 12.9377 4.49676 11.9991 4.5C7.75951 4.50035 4.28691 6.99038 1.56588 11.7519C1.47803 11.9057 1.47804 12.0944 1.56592 12.2481C2.3591 13.6357 3.21465 14.8307 4.13582 15.8274C4.32325 16.0302 4.63959 16.0426 4.84238 15.8552C5.04517 15.6677 5.05762 15.3514 4.87018 15.1486C4.06322 14.2755 3.29876 13.227 2.57785 12C5.16372 7.5972 8.30868 5.5 12 5.5L12.0018 5.5Z" fill="#89898B"/>
</svg>
