<svg width="40" height="40" viewBox="0 0 40 40" fill="none" xmlns="http://www.w3.org/2000/svg">
<path fill-rule="evenodd" clip-rule="evenodd" d="M10.0002 7.49967C9.33712 7.49967 8.70124 7.76307 8.2324 8.23191C7.76355 8.70075 7.50016 9.33663 7.50016 9.99967V13.333C7.50016 13.7932 7.12707 14.1663 6.66683 14.1663C6.20659 14.1663 5.8335 13.7932 5.8335 13.333V9.99967C5.8335 8.89461 6.27248 7.8348 7.05388 7.0534C7.83529 6.27199 8.89509 5.83301 10.0002 5.83301H13.3335C13.7937 5.83301 14.1668 6.2061 14.1668 6.66634C14.1668 7.12658 13.7937 7.49967 13.3335 7.49967H10.0002Z" fill="#89898B"/>
<path fill-rule="evenodd" clip-rule="evenodd" d="M6.66683 25.833C7.12707 25.833 7.50016 26.2061 7.50016 26.6663V29.9997C7.50016 30.6627 7.76355 31.2986 8.2324 31.7674C8.70124 32.2363 9.33712 32.4997 10.0002 32.4997H13.3335C13.7937 32.4997 14.1668 32.8728 14.1668 33.333C14.1668 33.7932 13.7937 34.1663 13.3335 34.1663H10.0002C8.89509 34.1663 7.83529 33.7274 7.05388 32.946C6.27248 32.1646 5.8335 31.1047 5.8335 29.9997V26.6663C5.8335 26.2061 6.20659 25.833 6.66683 25.833Z" fill="#89898B"/>
<path fill-rule="evenodd" clip-rule="evenodd" d="M25.8335 6.66634C25.8335 6.2061 26.2066 5.83301 26.6668 5.83301H30.0002C31.1052 5.83301 32.165 6.27199 32.9464 7.0534C33.7278 7.8348 34.1668 8.89461 34.1668 9.99967V13.333C34.1668 13.7932 33.7937 14.1663 33.3335 14.1663C32.8733 14.1663 32.5002 13.7932 32.5002 13.333V9.99967C32.5002 9.33663 32.2368 8.70075 31.7679 8.23191C31.2991 7.76307 30.6632 7.49967 30.0002 7.49967H26.6668C26.2066 7.49967 25.8335 7.12658 25.8335 6.66634Z" fill="#89898B"/>
<path fill-rule="evenodd" clip-rule="evenodd" d="M33.3335 25.833C33.7937 25.833 34.1668 26.2061 34.1668 26.6663V29.9997C34.1668 31.1047 33.7278 32.1646 32.9464 32.946C32.165 33.7274 31.1052 34.1663 30.0002 34.1663H26.6668C26.2066 34.1663 25.8335 33.7932 25.8335 33.333C25.8335 32.8728 26.2066 32.4997 26.6668 32.4997H30.0002C30.6632 32.4997 31.2991 32.2363 31.7679 31.7674C32.2368 31.2986 32.5002 30.6627 32.5002 29.9997V26.6663C32.5002 26.2061 32.8733 25.833 33.3335 25.833Z" fill="#89898B"/>
<path fill-rule="evenodd" clip-rule="evenodd" d="M14.1665 16.6663C14.1665 16.2061 14.5396 15.833 14.9998 15.833H15.0165C15.4767 15.833 15.8498 16.2061 15.8498 16.6663C15.8498 17.1266 15.4767 17.4997 15.0165 17.4997H14.9998C14.5396 17.4997 14.1665 17.1266 14.1665 16.6663Z" fill="#89898B"/>
<path fill-rule="evenodd" clip-rule="evenodd" d="M24.1665 16.6663C24.1665 16.2061 24.5396 15.833 24.9998 15.833H25.0165C25.4767 15.833 25.8498 16.2061 25.8498 16.6663C25.8498 17.1266 25.4767 17.4997 25.0165 17.4997H24.9998C24.5396 17.4997 24.1665 17.1266 24.1665 16.6663Z" fill="#89898B"/>
<path fill-rule="evenodd" clip-rule="evenodd" d="M15.2501 24.4051C15.5789 24.083 16.1065 24.0884 16.4286 24.4171C16.8941 24.8923 17.4498 25.2697 18.063 25.5274C18.6763 25.7851 19.3348 25.9178 20 25.9178C20.6652 25.9178 21.3237 25.7851 21.937 25.5274C22.5502 25.2697 23.1059 24.8923 23.5714 24.4171C23.8935 24.0884 24.4211 24.083 24.7499 24.4051C25.0786 24.7272 25.084 25.2548 24.7619 25.5835C24.1412 26.2171 23.4003 26.7204 22.5826 27.0639C21.7649 27.4075 20.8869 27.5845 20 27.5845C19.1131 27.5845 18.2351 27.4075 17.4174 27.0639C16.5997 26.7204 15.8588 26.2171 15.2381 25.5835C14.916 25.2548 14.9214 24.7272 15.2501 24.4051Z" fill="#89898B"/>
</svg>
