<svg width="24" height="24" viewBox="0 0 24 24" fill="none" xmlns="http://www.w3.org/2000/svg">
<path fill-rule="evenodd" clip-rule="evenodd" d="M9 4.5C8.60218 4.5 8.22064 4.65804 7.93934 4.93934C7.65804 5.22064 7.5 5.60218 7.5 6V19.1169L11.7428 16.5713C11.9011 16.4762 12.0989 16.4762 12.2572 16.5713L16.5 19.1169V6C16.5 5.60218 16.342 5.22064 16.0607 4.93934C15.7794 4.65804 15.3978 4.5 15 4.5H9ZM7.23223 4.23223C7.70107 3.76339 8.33696 3.5 9 3.5H15C15.663 3.5 16.2989 3.76339 16.7678 4.23223C17.2366 4.70107 17.5 5.33696 17.5 6V20C17.5 20.1801 17.4031 20.3463 17.2463 20.4351C17.0896 20.5239 16.8972 20.5214 16.7428 20.4287L12 17.5831L7.25725 20.4287C7.10278 20.5214 6.9104 20.5239 6.75365 20.4351C6.5969 20.3463 6.5 20.1801 6.5 20V6C6.5 5.33696 6.76339 4.70107 7.23223 4.23223Z" fill="white"/>
</svg>
