<svg width="40" height="40" viewBox="0 0 40 40" fill="none" xmlns="http://www.w3.org/2000/svg">
<path d="M31.5 11.6667C33.0074 14.1687 33.6515 17.0964 33.3333 20V21.6667C33.3314 23.4215 33.7912 25.1459 34.6667 26.6667" stroke="#808687" stroke-width="3" stroke-linecap="round" stroke-linejoin="round"/>
<path d="M13.3334 18.3334C13.3334 16.5652 14.0358 14.8696 15.286 13.6193C16.5362 12.3691 18.2319 11.6667 20 11.6667C21.7682 11.6667 23.4638 12.3691 24.7141 13.6193C25.9643 14.8696 26.6667 16.5652 26.6667 18.3334V20C26.6667 23.6062 27.8363 27.1151 30 30" stroke="#808687" stroke-width="3" stroke-linecap="round" stroke-linejoin="round"/>
<path d="M20 18.3333V21.6666C19.9947 26.4323 21.4488 31.0853 24.1667 35" stroke="#808687" stroke-width="3" stroke-linecap="round" stroke-linejoin="round"/>
<path d="M13.3334 25C13.7412 28.4831 14.7566 31.8676 16.3334 35" stroke="#808687" stroke-width="3" stroke-linecap="round" stroke-linejoin="round"/>
<path d="M8.16672 31.6666C7.04214 27.8838 6.53562 23.9443 6.66672 20V18.3333C6.66033 15.9897 7.27176 13.6859 8.4394 11.6539C9.60704 9.62192 11.2896 7.93359 13.3176 6.75904C15.3456 5.58449 17.6474 4.96522 19.991 4.96363C22.3345 4.96204 24.6371 5.57818 26.6667 6.74998" stroke="#808687" stroke-width="3" stroke-linecap="round" stroke-linejoin="round"/>
</svg>
