<svg width="26" height="38" viewBox="0 0 26 38" fill="none" xmlns="http://www.w3.org/2000/svg">
<path fill-rule="evenodd" clip-rule="evenodd" d="M13 0C8.02944 0 4 4.02944 4 9C4 13.9706 8.02944 18 13 18C17.9706 18 22 13.9706 22 9C22 4.02944 17.9706 0 13 0ZM6 9C6 5.13401 9.13401 2 13 2C16.866 2 20 5.13401 20 9C20 12.866 16.866 16 13 16C9.13401 16 6 12.866 6 9Z" fill="#B9B9B9"/>
<path fill-rule="evenodd" clip-rule="evenodd" d="M9 26C7.14349 26 5.36301 26.7375 4.05025 28.0503C2.7375 29.363 2 31.1435 2 33V37C2 37.5523 1.55228 38 1 38C0.447715 38 0 37.5523 0 37V33C0 30.6131 0.948211 28.3239 2.63604 26.636C4.32387 24.9482 6.61305 24 9 24H13V26H9Z" fill="#B9B9B9"/>
<path fill-rule="evenodd" clip-rule="evenodd" d="M17 26C18.8565 26 20.637 26.7375 21.9497 28.0503C23.2625 29.363 24 31.1435 24 33V37C24 37.5523 24.4477 38 25 38C25.5523 38 26 37.5523 26 37V33C26 30.6131 25.0518 28.3239 23.364 26.636C21.6761 24.9482 19.3869 24 17 24H13V26H17Z" fill="#B9B9B9"/>
</svg>
