<svg width="32" height="32" viewBox="0 0 32 32" fill="none" xmlns="http://www.w3.org/2000/svg">
<path fill-rule="evenodd" clip-rule="evenodd" d="M2.66669 4.66667C2.66669 4.29848 2.96516 4 3.33335 4H27.1765C27.5447 4 27.8432 4.29848 27.8432 4.66667C27.8432 5.03486 27.5447 5.33333 27.1765 5.33333H3.33335C2.96516 5.33333 2.66669 5.03486 2.66669 4.66667ZM19.7255 12.8889C16.8104 12.8889 14.4314 15.2878 14.4314 18.2667C14.4314 21.2455 16.8104 23.6444 19.7255 23.6444C22.6406 23.6444 25.0196 21.2455 25.0196 18.2667C25.0196 15.2878 22.6406 12.8889 19.7255 12.8889ZM13.0981 18.2667C13.0981 14.569 16.0565 11.5556 19.7255 11.5556C23.3945 11.5556 26.353 14.569 26.353 18.2667C26.353 21.9643 23.3945 24.9778 19.7255 24.9778C16.0565 24.9778 13.0981 21.9643 13.0981 18.2667ZM2.66669 13.7333C2.66669 13.3651 2.96516 13.0667 3.33335 13.0667H9.29414C9.66233 13.0667 9.9608 13.3651 9.9608 13.7333C9.9608 14.1015 9.66233 14.4 9.29414 14.4H3.33335C2.96516 14.4 2.66669 14.1015 2.66669 13.7333ZM2.66669 22.8C2.66669 22.4318 2.96516 22.1333 3.33335 22.1333H9.29414C9.66233 22.1333 9.9608 22.4318 9.9608 22.8C9.9608 23.1682 9.66233 23.4667 9.29414 23.4667H3.33335C2.96516 23.4667 2.66669 23.1682 2.66669 22.8ZM24.4731 23.0809C24.7352 22.8223 25.1573 22.8253 25.4159 23.0874L29.1414 26.8652C29.3999 27.1274 29.3969 27.5495 29.1348 27.808C28.8726 28.0665 28.4505 28.0636 28.192 27.8014L24.4665 24.0237C24.208 23.7615 24.2109 23.3394 24.4731 23.0809Z" fill="#141416"/>
</svg>
