<svg width="24" height="24" viewBox="0 0 24 24" fill="none" xmlns="http://www.w3.org/2000/svg">
<path fill-rule="evenodd" clip-rule="evenodd" d="M11.6685 2.62552C11.8577 2.45816 12.142 2.45816 12.3311 2.62552C14.5696 4.60599 17.4913 5.63715 20.477 5.50052C20.7071 5.48999 20.9146 5.63801 20.9795 5.85898C21.452 7.46629 21.5966 9.15218 21.4047 10.8165C21.2127 12.4808 20.6882 14.0895 19.8622 15.547C19.0363 17.0046 17.9258 18.2813 16.5967 19.3012C15.2676 20.321 13.747 21.0634 12.1254 21.484C12.043 21.5053 11.9566 21.5053 11.8743 21.484C10.2526 21.0634 8.73209 20.321 7.40299 19.3012C6.07389 18.2813 4.96337 17.0046 4.13742 15.547C3.31147 14.0895 2.78694 12.4808 2.595 10.8165C2.40307 9.15218 2.54764 7.46629 3.02013 5.85898C3.08509 5.63801 3.2926 5.48999 3.52269 5.50052C6.5084 5.63715 9.43002 4.60599 11.6685 2.62552ZM3.87735 6.51138C3.52486 7.87757 3.42652 9.29809 3.58842 10.7019C3.765 12.233 4.24756 13.7131 5.00744 15.054C5.76732 16.395 6.789 17.5695 8.01177 18.5078C9.20018 19.4197 10.555 20.0905 11.9998 20.4827C13.4447 20.0905 14.7995 19.4197 15.9879 18.5078C17.2107 17.5695 18.2324 16.395 18.9922 15.054C19.7521 13.7131 20.2347 12.233 20.4113 10.7019C20.5731 9.29809 20.4748 7.87757 20.1223 6.51138C17.1622 6.55197 14.2834 5.54022 11.9998 3.65747C9.71625 5.54022 6.83748 6.55197 3.87735 6.51138ZM11.9998 10.5C11.7237 10.5 11.4998 10.7239 11.4998 11C11.4998 11.2761 11.7237 11.5 11.9998 11.5C12.276 11.5 12.4998 11.2761 12.4998 11C12.4998 10.7239 12.276 10.5 11.9998 10.5ZM10.4998 11C10.4998 10.1716 11.1714 9.5 11.9998 9.5C12.8283 9.5 13.4998 10.1716 13.4998 11C13.4998 11.6531 13.0824 12.2087 12.4998 12.4146V14.5C12.4998 14.7761 12.276 15 11.9998 15C11.7237 15 11.4998 14.7761 11.4998 14.5V12.4146C10.9172 12.2087 10.4998 11.6531 10.4998 11Z" fill="#B9B9B9"/>
</svg>
